<?xml version="1.0" encoding="UTF-8"?>
<svg width="179px" height="154px" viewBox="0 0 179 154" version="1.1" xmlns="http://www.w3.org/2000/svg" xmlns:xlink="http://www.w3.org/1999/xlink">
    <title>Artboard</title>
    <defs>
        <linearGradient x1="94%" y1="100%" x2="-10.1478485%" y2="49.9741176%" id="linearGradient-1">
            <stop stop-color="#F9536B" offset="0%"></stop>
            <stop stop-color="#C162AE" offset="47.9994%"></stop>
            <stop stop-color="#7F6CF7" offset="100%"></stop>
        </linearGradient>
        <linearGradient x1="94%" y1="100%" x2="-7.61238235%" y2="45.0015152%" id="linearGradient-2">
            <stop stop-color="#F9536B" offset="0%"></stop>
            <stop stop-color="#C162AE" offset="47.9994%"></stop>
            <stop stop-color="#7F6CF7" offset="100%"></stop>
        </linearGradient>
    </defs>
    <g id="Artboard" stroke="none" stroke-width="1" fill="none" fill-rule="evenodd">
        <path d="M171.423873,7.336845 C166.619518,2.684205 160.1521,0 152.945645,0 L132.978002,0 C130.228731,0 128,2.163165 128,4.831575 C128,7.499985 130.228715,9.66315 132.977986,9.66315 L152.760809,9.66315 C157.195645,9.66315 161.260809,11.452635 164.217418,14.31579 C167.173873,17.1789 169.021773,21.1158 169.021773,25.41045 L169.021773,46.15755 C169.021773,48.83205 171.255418,51 174.010809,51 C176.766355,51 179,48.83205 179,46.15755 L179,25.23165 C179,18.2526 176.043545,11.98947 171.423873,7.336845 Z" id="Path" fill="url(#linearGradient-1)" fill-rule="nonzero"></path>
        <path d="M14.782605,139.633764 C11.82609,136.760609 9.978255,132.809809 9.978255,128.5 L9.978255,108.140321 C9.978255,105.301398 7.744545,103 4.989135,103 C2.23371,103 0,105.301398 0,108.140321 L0,128.679582 C0,135.683118 2.956515,141.968327 7.57608,146.6373 C12.565215,151.126691 19.0326,154 26.2392,154 L46.29405,154 C48.8931,154 51,151.829255 51,149.151445 C51,146.473636 48.8931,144.302891 46.29405,144.302891 L26.2392,144.302891 C21.8043,144.302891 17.73915,142.507073 14.782605,139.633764 Z" id="Path" fill="url(#linearGradient-2)" fill-rule="nonzero"></path>
    </g>
</svg>